<svg width="70" height="70" viewBox="0 0 70 70" fill="none" xmlns="http://www.w3.org/2000/svg">
<path d="M54.4354 57.0402L55.1484 65.2602C55.257 66.5314 54.7648 67.729 53.8579 68.6204C52.9705 69.4922 51.7458 70 50.4979 70H7.52984C6.28187 70 5.05714 69.4922 4.16587 68.6202C3.26298 67.7288 2.77066 66.5313 2.87908 65.2601L3.11943 62.4853C3.16974 61.9233 3.66589 61.5047 4.22781 61.5512C4.79368 61.6016 5.21218 62.0977 5.16187 62.6634L4.92165 65.4344C4.86738 66.0933 5.1348 66.7018 5.59978 67.1591C6.11138 67.6591 6.81671 67.9498 7.52984 67.9498H50.4979C51.2111 67.9498 51.9164 67.6591 52.424 67.1591C52.889 66.7018 53.1604 66.0934 53.1061 65.4344L52.393 57.2183C48.3005 57.288 44.394 55.7145 41.4988 52.8195C38.7783 50.1028 37.1 46.3474 37.1 42.2006C37.1 38.0537 38.7781 34.2984 41.4988 31.5816C43.7001 29.3803 46.5797 27.8573 49.8003 27.3611L49.5173 24.1135C49.4708 23.5476 49.8894 23.0516 50.4513 23.0051C51.0172 22.9548 51.5132 23.3733 51.5597 23.939L51.8426 27.1868C55.9351 27.1132 59.8416 28.6866 62.7367 31.5816C65.4535 34.2984 67.1354 38.0537 67.1354 42.2006C67.1354 46.3475 65.4535 50.1029 62.7367 52.8195C60.5356 55.0211 57.6522 56.5441 54.4354 57.0402ZM54.4432 46.5452C54.8463 46.1422 55.4935 46.1422 55.8965 46.5452C56.2956 46.9444 56.2956 47.5955 55.8965 47.9947L52.8425 51.0448C52.4433 51.4478 51.7923 51.4478 51.393 51.0448L44.3589 44.0145C43.2892 42.941 42.7543 41.5342 42.7543 40.1235C42.7543 38.7129 43.2892 37.306 44.3589 36.2325C45.4285 35.1628 46.8392 34.6281 48.2499 34.6281C49.6489 34.6281 51.0481 35.1552 52.1178 36.2132C53.1835 35.1552 54.5865 34.6281 55.9856 34.6281C57.3962 34.6281 58.8031 35.163 59.8766 36.2325C60.9463 37.306 61.4811 38.7129 61.4811 40.1235C61.4811 41.5342 60.9463 42.941 59.8766 44.0145L59.1789 44.7083C58.7798 45.1113 58.1286 45.1113 57.7294 44.7083C57.3303 44.3092 57.3303 43.662 57.7294 43.2588L58.4271 42.5651C59.0936 41.8946 59.4307 41.0071 59.4307 40.1235C59.4307 39.2399 59.0936 38.3523 58.4271 37.6819C57.7566 37.0154 56.869 36.6781 55.9856 36.6781C55.1019 36.6781 54.2144 37.0152 53.5439 37.6819L52.8425 38.3873C52.4433 38.7864 51.7923 38.7864 51.393 38.3873L50.6877 37.6819C50.0172 37.0154 49.1335 36.6781 48.2499 36.6781C47.3624 36.6781 46.4788 37.0152 45.8083 37.6819C45.1379 38.3523 44.8046 39.2399 44.8046 40.1235C44.8046 41.0071 45.1379 41.8946 45.8083 42.5651L52.1178 48.8707L54.4432 46.5452ZM40.5533 21.9937C39.8828 21.9937 39.5302 21.4744 39.5302 20.8465C39.4178 20.9202 39.3171 21.0015 39.224 21.0946C38.8868 21.4318 38.6775 21.9045 38.6775 22.42C38.6775 22.9392 38.8868 23.4083 39.224 23.7493C39.5651 24.0904 40.0339 24.2996 40.5533 24.2996C41.0725 24.2996 41.5415 24.0903 41.8826 23.7493C42.2198 23.4083 42.4329 22.9394 42.4329 22.42C42.4329 21.9045 42.2198 21.4316 41.8826 21.0946C41.7896 21.0016 41.6887 20.9202 41.5803 20.8465C41.5803 21.4744 41.2276 21.9937 40.5533 21.9937ZM39.5302 18.6297V16.1882H18.4975V18.6297C19.1718 18.808 19.7726 19.1646 20.2492 19.6451C20.9623 20.3544 21.4002 21.3388 21.4002 22.42C21.4002 23.5051 20.9623 24.4895 20.2492 25.1986C19.5399 25.9118 18.5595 26.3497 17.4743 26.3497C16.3892 26.3497 15.4048 25.9116 14.6955 25.1986C13.9824 24.4895 13.5445 23.5051 13.5445 22.42C13.5445 21.3387 13.9824 20.3544 14.6955 19.6451C15.1723 19.1646 15.7768 18.808 16.4473 18.6297V16.1882H9.1963L5.56491 58.0362C5.5146 58.5981 5.01845 59.0167 4.45654 58.9702C3.89066 58.9198 3.47216 58.4238 3.52247 57.858L7.23521 15.076C7.28169 14.5411 7.7274 14.1381 8.25458 14.1381H16.4475V7.55727C16.4475 5.47996 17.2962 3.58873 18.668 2.22059C20.0362 0.84875 21.9274 0 24.0047 0H34.0231C36.1002 0 37.9915 0.84875 39.3596 2.22072C40.7276 3.58887 41.5803 5.4801 41.5803 7.5574V14.1381H49.7732C50.3158 14.1381 50.7576 14.5605 50.7924 15.0954L51.1606 19.308C51.2071 19.8738 50.7924 20.37 50.2266 20.4203C49.6646 20.4668 49.1647 20.0521 49.118 19.4862L48.8312 16.1882H41.58V18.6297C42.2505 18.808 42.8513 19.1646 43.3317 19.6451C44.041 20.3544 44.4827 21.3388 44.4827 22.42C44.4827 23.5051 44.041 24.4895 43.3317 25.1986C42.6186 25.9118 41.6382 26.3497 40.553 26.3497C39.4679 26.3497 38.4873 25.9116 37.7742 25.1986C37.0649 24.4895 36.6232 23.5051 36.6232 22.42C36.6232 21.3387 37.065 20.3544 37.7742 19.6451C38.255 19.1646 38.8558 18.808 39.5302 18.6297ZM39.5302 14.1379V7.55727C39.5302 6.04584 38.9101 4.67004 37.9102 3.67008C36.9103 2.67012 35.5345 2.0501 34.0231 2.0501H24.0047C22.4933 2.0501 21.1175 2.67012 20.1175 3.67008C19.1177 4.6699 18.4975 6.0457 18.4975 7.55727V14.1379H39.5302ZM18.4975 20.8465C18.4975 21.4743 18.1448 21.9937 17.4745 21.9937C16.8002 21.9937 16.4475 21.4744 16.4475 20.8465C16.3389 20.9202 16.2381 21.0015 16.1452 21.0946C15.8041 21.4318 15.5949 21.9045 15.5949 22.42C15.5949 22.9392 15.8042 23.4083 16.1452 23.7493C16.4861 24.0904 16.9551 24.2996 17.4745 24.2996C17.9899 24.2996 18.4628 24.0903 18.7998 23.7493C19.1409 23.4083 19.3501 22.9394 19.3501 22.42C19.3501 21.9045 19.1408 21.4316 18.7998 21.0946C18.7107 21.0016 18.6061 20.9202 18.4975 20.8465ZM61.2874 33.0312C58.9388 30.6865 55.6989 29.2332 52.1179 29.2332C48.5368 29.2332 45.2931 30.6865 42.9483 33.0312C40.5998 35.3798 39.1503 38.6198 39.1503 42.2007C39.1503 45.7818 40.5998 49.0256 42.9483 51.3703C45.2931 53.7188 48.5368 55.1683 52.1179 55.1683C55.6989 55.1683 58.9388 53.7188 61.2874 51.3703C63.6321 49.0256 65.0854 45.7818 65.0854 42.2007C65.0854 38.6198 63.6321 35.3798 61.2874 33.0312Z" fill="#D65B97"/>
</svg>
