<svg width="70" height="70" viewBox="0 0 70 70" fill="none" xmlns="http://www.w3.org/2000/svg">
<g clip-path="url(#clip0_410_256)">
<path d="M18.0951 16.453C17.8216 17.4667 17.2342 18.1273 17.2326 18.1289C16.8433 18.5492 16.8689 19.2056 17.2892 19.5949C17.4884 19.7797 17.7415 19.871 17.9936 19.871C18.2724 19.871 18.5506 19.7594 18.7552 19.5388C19.9547 18.2432 21.5109 14.8648 18.8177 11.348C17.9888 10.266 17.623 9.28172 17.7608 8.50253C17.8163 8.1869 17.9477 7.93376 18.0871 7.74256C18.3285 7.41038 18.3343 6.96124 18.1213 6.61036L18.1148 6.59968C17.7357 5.97537 16.8406 5.92997 16.4096 6.52011C16.1201 6.91638 15.852 7.43495 15.7276 8.08489C15.459 9.48679 15.9444 11.0094 17.1706 12.61C18.1325 13.8661 18.4433 15.159 18.0951 16.453Z" fill="#D65B97"/>
<path d="M40.0477 16.4532C39.7743 17.4669 39.1863 18.1275 39.1852 18.1291C38.7959 18.5494 38.821 19.2058 39.2418 19.5951C39.441 19.7799 39.6942 19.8712 39.9463 19.8712C40.225 19.8712 40.5033 19.7596 40.7078 19.539C41.9073 18.2434 43.4636 14.8649 40.7703 11.3482C39.9414 10.2662 39.5756 9.2819 39.7134 8.50271C39.7705 8.17854 39.9078 7.91952 40.0515 7.72672C40.2886 7.40789 40.3297 6.98492 40.1476 6.63191L40.1396 6.61695C39.7919 5.94297 38.8632 5.86714 38.4034 6.47009C38.0936 6.87704 37.8095 7.41003 37.6802 8.08508C37.4116 9.48698 37.8971 11.0096 39.1227 12.6101C40.0851 13.8662 40.3959 15.1592 40.0477 16.4532Z" fill="#D65B97"/>
<path d="M29.0717 10.2437C28.7982 11.2573 28.2108 11.918 28.2092 11.9196C27.8198 12.3399 27.8449 12.9962 28.2658 13.3855C28.465 13.5703 28.7181 13.6617 28.9702 13.6617C29.249 13.6617 29.5272 13.55 29.7318 13.3295C30.9312 12.0338 32.4875 8.6554 29.7942 5.13917C28.9654 4.05663 28.5995 3.0729 28.7373 2.29317C28.7929 1.97808 28.9008 1.7431 29.0118 1.57326C29.2062 1.27633 29.218 0.894478 29.0604 0.575646C28.7122 -0.130913 27.7253 -0.204613 27.2879 0.450676C27.0374 0.826653 26.8147 1.29929 26.7042 1.87554C26.4355 3.27744 26.921 4.80004 28.1467 6.40061C29.109 7.65671 29.4199 8.94967 29.0717 10.2437Z" fill="#D65B97"/>
<path d="M46.5325 58.4695C48.32 57.6289 50.436 56.8422 52.8349 56.1287C62.0581 53.3836 66.408 44.1541 65.1487 37.1761C64.7284 34.8487 63.6993 32.8881 62.1713 31.5055C60.434 29.9332 58.1675 29.1941 55.6142 29.3671C53.5436 29.5081 51.5943 30.0464 49.8699 30.9399L50.7548 23.6367C50.8077 23.2009 50.6715 22.7624 50.3804 22.434C50.0893 22.1055 49.6706 21.917 49.2317 21.917H41.106C40.5335 21.917 40.0688 22.3816 40.0688 22.9547C40.0688 23.5277 40.5335 23.9923 41.106 23.9923H48.6218L44.2286 60.2324C44.0817 61.4426 43.3266 62.4995 42.2392 63.0357H15.6784C14.5911 62.4995 13.8359 61.4426 13.6896 60.2324L12.9339 54.0005C12.865 53.4312 12.348 53.0264 11.7793 53.0953C11.21 53.1642 10.8051 53.6811 10.874 54.2504L11.6292 60.4823C11.7424 61.4143 12.0869 62.2869 12.6071 63.0357H1.81109C1.2327 63.0357 0.684227 63.3155 0.344566 63.7844C0.00490554 64.2528 -0.0906907 64.8611 0.0892866 65.4112C0.987571 68.1557 3.53129 69.9998 6.41947 69.9998H51.997C54.8847 69.9998 57.4289 68.1557 58.3266 65.4106C58.5066 64.8605 58.4116 64.2528 58.0719 63.7839C57.7317 63.3155 57.1838 63.0357 56.6048 63.0357H45.3111C45.8313 62.2869 46.1758 61.4143 46.2885 60.4823L46.5325 58.4695ZM48.7724 39.9922C50.7681 37.1083 53.1976 35.5963 55.9966 35.4981C57.1079 35.4596 58.6407 35.7037 59.1032 38.2672C59.4754 40.3308 58.9424 42.8654 57.6778 45.0459C56.6444 46.8281 54.6609 49.1758 51.0827 50.2407C49.7839 50.6274 48.5459 51.0391 47.3811 51.4696L48.7724 39.9922ZM47.0986 53.7981C48.5011 53.2437 50.037 52.7166 51.675 52.2296C55.9058 50.9702 58.2503 48.1942 59.4727 46.0874C60.9772 43.4934 61.6026 40.4322 61.1454 37.8987C60.6065 34.9143 58.7523 33.3255 55.9239 33.4243C53.4155 33.5124 51.1719 34.4737 49.2215 36.2874L49.5537 33.5493C51.3001 32.3236 53.4347 31.5952 55.7546 31.4376C57.7317 31.3025 59.4695 31.859 60.779 33.0441C61.9641 34.1165 62.7689 35.6727 63.1065 37.5451C64.2072 43.6435 60.3667 51.7222 52.2432 54.1399C50.2474 54.7337 48.4332 55.3789 46.8241 56.0657L47.0986 53.7981ZM56.2267 65.111C55.5175 66.8083 53.8614 67.925 51.997 67.925H6.41947C4.55508 67.925 2.89843 66.8083 2.18973 65.111H56.2267Z" fill="#D65B97"/>
<path d="M10.2889 49.4193C10.3524 49.9459 10.7999 50.332 11.3174 50.332C11.3586 50.332 11.4013 50.3299 11.4435 50.3246C12.0123 50.2557 12.4176 49.7387 12.3482 49.1699L9.29657 23.9923H36.2788C36.8518 23.9923 37.3165 23.5277 37.3165 22.9547C37.3165 22.3816 36.8518 21.917 36.2788 21.917H8.68668C8.24768 21.917 7.82898 22.1055 7.53792 22.434C7.24686 22.7624 7.11014 23.2009 7.16301 23.6361L10.2889 49.4193Z" fill="#D65B97"/>
</g>
<defs>
<clipPath id="clip0_410_256">
<rect width="70" height="70" fill="white"/>
</clipPath>
</defs>
</svg>
