<svg width="70" height="70" viewBox="0 0 70 70" fill="none" xmlns="http://www.w3.org/2000/svg">
<g clip-path="url(#clip0_410_200)">
<path d="M58.7861 21.9581L55.4995 17.9708C55.0482 17.4234 54.7737 16.7612 54.7065 16.0557L54.2108 10.9122C53.9534 8.23981 51.8268 6.1132 49.1544 5.85578L44.0109 5.36071C43.3054 5.29289 42.6432 5.01838 42.0958 4.56764L38.1085 1.28053C36.0369 -0.426844 33.0297 -0.426844 30.9581 1.28053L26.9708 4.56764C26.424 5.01838 25.7617 5.29289 25.0557 5.36071L19.9122 5.85578C17.2398 6.1132 15.1137 8.23981 14.8558 10.9122L14.3607 16.0557C14.2929 16.7612 14.0184 17.4234 13.5676 17.9708L10.2805 21.9581C8.57316 24.0297 8.57316 27.037 10.2805 29.1086L13.5676 33.0958C14.0184 33.6432 14.2929 34.3054 14.3607 35.0109L14.8558 40.1544C15.1132 42.8268 17.2398 44.9529 19.9122 45.2109L23.0562 45.5137L15.5864 63.3634C15.384 63.8494 15.4753 64.3963 15.8251 64.7904C16.1749 65.184 16.7063 65.3399 17.2115 65.1963L23.6923 63.3666C23.7206 63.3586 23.7478 63.3709 23.7606 63.3938L27.0061 69.2952C27.2475 69.7347 27.6987 69.9996 28.1954 69.9996C28.2189 69.9996 28.2424 69.999 28.2664 69.998C28.7914 69.9713 29.2454 69.654 29.4531 69.1648L37.3395 50.318C37.6071 50.1642 37.8645 49.9874 38.1091 49.7861L42.0963 46.4995C42.601 46.083 43.205 45.8197 43.8496 45.7278L50.9926 62.7957L45.9378 61.3687C44.9765 61.0979 43.9698 61.5193 43.4876 62.3936L40.9567 66.9955L37.6033 58.982C37.3817 58.4528 36.7739 58.2039 36.2447 58.425C35.716 58.6461 35.4666 59.2544 35.6882 59.7831L39.6162 69.1702C39.8218 69.654 40.2752 69.9713 40.8007 69.998C40.8248 69.999 40.8483 70.0001 40.8718 70.0001C41.3684 70.0001 41.8197 69.7347 42.0611 69.2952L45.306 63.3949C45.3194 63.3709 45.3471 63.3597 45.3744 63.3666L51.8541 65.1963C52.3603 65.3394 52.8923 65.184 53.2415 64.7904C53.5913 64.3963 53.6827 63.8499 53.4797 63.3623L46.0104 45.5131L49.1544 45.2103C51.8268 44.9529 53.9534 42.8268 54.2108 40.1544L54.7065 35.0104C54.7737 34.3049 55.0482 33.6432 55.4995 33.0958L58.7861 29.1086C60.494 27.037 60.494 24.0297 58.7861 21.9581ZM28.1105 66.9955L25.5791 62.3925C25.0974 61.5188 24.0896 61.0974 23.1288 61.3687L18.0745 62.7952L25.217 45.7278C25.8621 45.8197 26.4661 46.083 26.9708 46.499L30.9581 49.7861C31.9942 50.6401 33.2636 51.0668 34.5336 51.0668C34.6153 51.0668 34.6965 51.0646 34.7782 51.0609L28.1105 66.9955ZM57.1845 27.7884L53.8979 31.7756C53.1823 32.6429 52.7475 33.6929 52.6397 34.8117L52.1446 39.9552C51.9822 41.6407 50.6412 42.9817 48.9557 43.1441L44.4376 43.5793C44.42 43.5804 44.4019 43.582 44.3842 43.5847L43.8123 43.6397C42.6929 43.7475 41.6429 44.1823 40.7756 44.8974L36.7884 48.1839C35.4821 49.2611 33.5851 49.2611 32.2788 48.1839L28.2915 44.8974C27.4242 44.1823 26.3743 43.747 25.2549 43.6397L24.6803 43.5841C24.6642 43.582 24.6488 43.5809 24.6327 43.5798L20.1114 43.1441C18.4259 42.9817 17.0849 41.6407 16.9226 39.9552L16.4275 34.8123C16.3196 33.6929 15.8849 32.6429 15.1693 31.7756L11.8827 27.7884C10.8055 26.4815 10.8055 24.5846 11.8827 23.2783L15.1693 19.291C15.8849 18.4237 16.3196 17.3738 16.4275 16.2544L16.9226 11.1109C17.0849 9.42541 18.4259 8.0844 20.1114 7.92204L25.2549 7.42697C26.3743 7.3191 27.4242 6.88437 28.2915 6.16927L32.2788 2.8827C32.932 2.34437 33.733 2.07467 34.5336 2.07467C35.3341 2.07467 36.1352 2.34384 36.7884 2.8827L40.7756 6.16927C41.6429 6.88437 42.6929 7.31963 43.8123 7.42697L48.9557 7.92204C50.6412 8.0844 51.9822 9.42541 52.1446 11.1109L52.6397 16.2544C52.7475 17.3738 53.1823 18.4237 53.8979 19.291L57.1845 23.2783C58.2611 24.5851 58.2611 26.4815 57.1845 27.7884Z" fill="#D65B97"/>
<path d="M34.5334 9.31812C33.8402 9.31812 33.1427 9.36191 32.4591 9.44949C31.8909 9.52212 31.4887 10.0423 31.5614 10.6105C31.634 11.1793 32.1547 11.5809 32.7224 11.5088C33.3184 11.4324 33.9278 11.394 34.5334 11.394C42.3301 11.394 48.673 17.737 48.673 25.5336C48.673 33.3303 42.3295 39.6727 34.5334 39.6727C26.7367 39.6727 20.3937 33.3298 20.3937 25.5331C20.3937 19.972 23.6728 14.9065 28.7474 12.6277C29.2703 12.3932 29.5042 11.7785 29.2692 11.2557C29.0342 10.7323 28.4195 10.4989 27.8972 10.7339C22.0776 13.347 18.3179 19.1559 18.3179 25.5331C18.3179 34.4748 25.5922 41.7486 34.5334 41.7486C43.4745 41.7486 50.7489 34.4748 50.7489 25.5331C50.7489 16.5919 43.4745 9.31812 34.5334 9.31812Z" fill="#D65B97"/>
<path d="M24.2249 24.3309C22.9875 25.5683 22.9875 27.5822 24.2249 28.8197L28.7585 33.3538C29.3583 33.953 30.1551 34.2831 31.0032 34.2831C31.8507 34.2831 32.6481 33.953 33.2478 33.3538L43.1445 23.4567C44.3819 22.2187 44.3819 20.2053 43.1445 18.9674C41.907 17.73 39.8931 17.73 38.6552 18.9674L31.0032 26.6199L28.7137 24.3309C27.4763 23.0935 25.4623 23.0935 24.2249 24.3309ZM31.0032 29.1262C31.2782 29.1262 31.5421 29.0167 31.737 28.8218L40.1233 20.4355C40.5516 20.0072 41.248 20.0077 41.6763 20.4355C42.1046 20.8638 42.1046 21.5607 41.6763 21.9885L31.7797 31.8857C31.5725 32.0929 31.2964 32.2072 31.0032 32.2072C30.7095 32.2072 30.4339 32.0929 30.2267 31.8857L25.6925 27.3521C25.2647 26.9238 25.2647 26.2268 25.6925 25.799C25.9067 25.5849 26.1881 25.4775 26.4696 25.4775C26.7505 25.4775 27.0319 25.5849 27.2456 25.7985L30.2689 28.8218C30.4638 29.0167 30.7276 29.1262 31.0032 29.1262Z" fill="#D65B97"/>
</g>
<defs>
<clipPath id="clip0_410_200">
<rect width="70" height="70" fill="white"/>
</clipPath>
</defs>
</svg>
