<svg width="70" height="70" viewBox="0 0 70 70" fill="none" xmlns="http://www.w3.org/2000/svg">
<path d="M61.3961 53.047C61.9624 53.047 62.4215 52.5879 62.4215 52.0216V27.4122C62.4215 26.1883 61.9445 24.9364 61.0783 23.8871L53.4736 14.673C53.0752 14.1903 52.6172 13.7834 52.1198 13.4594C52.1503 13.146 52.1677 12.8295 52.1677 12.51V1.02563C52.1677 0.459346 51.7086 0.000244141 51.1423 0.000244141C50.576 0.000244141 50.1169 0.459346 50.1169 1.02563C50.1169 1.02563 50.1149 12.6078 50.114 12.6567C49.8223 12.605 49.5261 12.5784 49.2282 12.5784H35.9665C35.0329 12.5784 34.1177 12.8403 33.2983 13.3217C33.2629 13.3344 33.2278 13.3486 33.1933 13.3655L23.1977 18.2343C22.0902 18.7898 21.2047 19.7215 20.7039 20.8578C20.6984 20.8702 20.6933 20.8827 20.6883 20.8952L16.5556 31.3777C16.3479 31.9046 16.6066 32.5001 17.1335 32.7079C17.257 32.7565 17.3841 32.7795 17.5093 32.7795C17.9181 32.7795 18.3045 32.5333 18.4635 32.13L22.5882 21.6677C22.8984 20.9747 23.4408 20.4069 24.1064 20.0727L29.3876 17.5004L24.1163 23.8872C23.327 24.8434 22.9099 26.0625 22.9099 27.4125V62.8226C22.9099 63.235 22.9461 63.6387 23.0119 64.0322L12.446 59.3504C10.0591 58.2929 8.97741 55.4837 10.0351 53.0884C10.0396 53.078 10.044 53.0675 10.0483 53.0571L16.7316 36.4479C16.9429 35.9225 16.6885 35.3253 16.1631 35.1138C15.6374 34.9025 15.0405 35.157 14.829 35.6823L8.15163 52.276C6.65018 55.7008 8.20112 59.7124 11.6151 61.2251L24.0051 66.7151C24.0203 66.7218 24.0358 66.7268 24.0511 66.7326C25.3086 68.6976 27.4827 70.0001 29.9509 70.0001H55.2439C59.1346 70.0001 62.4216 66.7131 62.4216 62.8224V56.8067C62.4216 56.2404 61.9625 55.7813 61.3962 55.7813C60.8299 55.7813 60.3708 56.2404 60.3708 56.8067V62.8224C60.3708 65.6014 58.0229 67.9493 55.2439 67.9493H29.9509C27.1993 67.9493 24.9607 65.6494 24.9607 62.8224V27.4122C24.9607 26.532 25.2087 25.7851 25.698 25.1924L33.3027 15.9784C34.0105 15.1209 34.9815 14.629 35.9665 14.629H49.2282C49.4214 14.629 49.6139 14.6486 49.8041 14.6855C49.1622 16.8745 47.5722 18.701 45.425 19.6164C44.8635 18.6772 43.837 18.047 42.6656 18.047C40.894 18.047 39.4527 19.4883 39.4527 21.2599C39.4527 23.0315 40.894 24.4728 42.6656 24.4728C44.3039 24.4728 45.6588 23.2398 45.8536 21.6532C48.6152 20.6087 50.7034 18.3955 51.6338 15.694C51.7231 15.7839 51.8095 15.8783 51.8921 15.9784L59.4968 25.1926C60.0603 25.8754 60.3708 26.6637 60.3708 27.4123V52.0217C60.3707 52.5879 60.8298 53.047 61.3961 53.047ZM42.6656 22.422C42.0248 22.422 41.5035 21.9007 41.5035 21.2599C41.5035 20.6191 42.0248 20.0978 42.6656 20.0978C43.3064 20.0978 43.8277 20.6191 43.8277 21.2599C43.8277 21.9007 43.3064 22.422 42.6656 22.422Z" fill="#D65B97"/>
<path d="M33.7789 54.551C34.0413 54.551 34.3038 54.4509 34.5039 54.2506L52.0039 36.7506C52.4044 36.3502 52.4044 35.7009 52.0039 35.3006C51.6035 34.9001 50.9542 34.9001 50.5539 35.3006L33.0539 52.8006C32.4001 53.4099 32.9017 54.582 33.7789 54.551Z" fill="#D65B97"/>
<path d="M35.9663 43.75C38.4163 43.75 40.4097 41.7566 40.4097 39.3066C40.4097 36.8566 38.4163 34.8633 35.9663 34.8633H35.8296C33.3796 34.8633 31.3862 36.8566 31.3862 39.3066C31.3862 41.7566 33.3796 43.75 35.8296 43.75H35.9663ZM33.437 39.3066C33.437 37.9874 34.5104 36.9141 35.8296 36.9141H35.9663C37.2855 36.9141 38.3589 37.9874 38.3589 39.3066C38.3589 40.6258 37.2855 41.6992 35.9663 41.6992H35.8296C34.5104 41.6992 33.437 40.6258 33.437 39.3066Z" fill="#D65B97"/>
<path d="M49.228 54.5508H49.3647C51.8147 54.5508 53.8081 52.5574 53.8081 50.1074C53.8081 47.6574 51.8147 45.6641 49.3647 45.6641H49.228C46.778 45.6641 44.7847 47.6574 44.7847 50.1074C44.7847 52.5574 46.778 54.5508 49.228 54.5508ZM49.228 47.7148H49.3647C50.6839 47.7148 51.7573 48.7882 51.7573 50.1074C51.7573 51.4266 50.6839 52.5 49.3647 52.5H49.228C47.9088 52.5 46.8354 51.4266 46.8354 50.1074C46.8354 48.7882 47.9088 47.7148 49.228 47.7148Z" fill="#D65B97"/>
</svg>
