<svg width="70" height="70" viewBox="0 0 70 70" fill="none" xmlns="http://www.w3.org/2000/svg">
<path d="M40.2915 64.7124L27.3974 54.5173C25.91 53.3428 25.0455 51.5868 25.0256 49.7003C24.9372 41.279 23.6803 25.8614 21.7291 14.6373C21.6321 14.0798 21.1015 13.705 20.5434 13.8029C19.9854 13.8998 19.6119 14.4306 19.709 14.9885C21.6423 26.1103 22.888 41.3823 22.9752 49.722C23.0019 52.2318 24.1506 54.5663 26.1262 56.1265L39.0213 66.3224C39.3113 66.551 39.4333 66.9292 39.3318 67.2864C39.2209 67.6769 38.8611 67.9497 38.4568 67.9497C38.3514 67.9497 38.2487 67.9319 38.1493 67.8963C35.3109 66.8849 30.0211 65.0358 26.4827 64.0164C24.2352 63.3678 22.3586 63.1929 20.5439 63.0235C19.304 62.9079 18.1329 62.7986 16.8879 62.5435C15.9463 62.3506 15.4915 61.5191 15.2756 60.8553C14.7663 59.2896 15.0224 56.7233 16.788 54.7888C16.9236 54.6402 17.0125 54.4551 17.0436 54.2562C17.3617 52.2248 15.4714 41.3348 12.7575 36.4732C8.21722 28.3361 7.22259 23.1684 9.20993 18.0423C9.37441 17.6179 9.2396 17.1361 8.87866 16.8587C8.51759 16.5816 8.01747 16.5754 7.6497 16.8434C6.62062 17.594 3.23792 20.11 0.653796 22.0366C0.199753 22.3752 0.106101 23.0175 0.444617 23.4714C0.783133 23.9254 1.42516 24.0193 1.87934 23.6806C3.33704 22.5939 5.04876 21.3196 6.44644 20.2823C5.41571 25.8557 7.50997 31.2775 10.9668 37.4727C13.4928 41.9973 15.057 51.6264 15.0344 53.6799C13.1947 55.8799 12.507 58.9726 13.3256 61.4896C13.8608 63.1352 15.0091 64.2516 16.4761 64.5522C17.8309 64.8297 19.1133 64.9494 20.3535 65.065C22.0737 65.2254 23.8522 65.3914 25.9145 65.9864C29.4003 66.9906 34.645 68.8241 37.4592 69.8269C37.7794 69.9416 38.1149 69.9999 38.4567 69.9999C39.7734 69.9999 40.9444 69.1142 41.3043 67.8464C41.6336 66.6866 41.2355 65.4562 40.2915 64.7124Z" fill="#D65B97"/>
<path d="M20.9398 10.5301C19.5068 3.82881 18.3109 2.22359 17.5357 1.5992C14.2038 -1.08377 8.50013 -0.0697313 0.961047 2.27787C0.420462 2.44644 0.118723 3.02107 0.287161 3.56179C0.455462 4.10238 1.02913 4.40371 1.57095 4.23568C7.55199 2.37302 13.4701 0.957984 16.2495 3.19593C16.5401 3.43013 17.5923 4.68166 18.9348 10.9587C19.0377 11.4402 19.4631 11.7698 19.9362 11.7698C20.0073 11.7698 20.0795 11.7623 20.1517 11.7469C20.7053 11.6286 21.0582 11.0838 20.9398 10.5301Z" fill="#D65B97"/>
<path d="M56.2302 27.0996L54.259 21.6837C54.0654 21.1516 53.477 20.8776 52.9449 21.0711C52.4128 21.2648 52.1385 21.8531 52.3321 22.3852L54.3033 27.8011C54.4549 28.2172 54.8481 28.4758 55.2669 28.4758C55.3834 28.4758 55.5018 28.4558 55.6174 28.4137C56.1496 28.22 56.424 27.6317 56.2302 27.0996Z" fill="#D65B97"/>
<path d="M50.5015 27.0996L48.5303 21.6837C48.3365 21.1516 47.7482 20.8776 47.2161 21.0711C46.684 21.2648 46.4097 21.8531 46.6033 22.3852L48.5746 27.8009C48.726 28.2172 49.1192 28.4758 49.5382 28.4758C49.6546 28.4758 49.773 28.4558 49.8887 28.4137C50.4208 28.22 50.6952 27.6317 50.5015 27.0996Z" fill="#D65B97"/>
<path d="M68.7344 59.02H68.3516C65.9437 59.02 63.807 57.4437 63.0842 55.1624C65.0382 54.2233 66.188 52.0181 65.6745 49.7724L62.2119 34.6323C62.0692 34.0085 62.2475 33.3597 62.6887 32.8965L67.5751 27.7651C68.616 26.672 68.6641 24.9808 67.6867 23.8315C62.0816 17.2384 59.1001 15.3012 57.5859 14.8374C55.8057 14.2918 52.6502 14.2205 47.9399 14.6185C47.3755 14.6663 46.957 15.1625 47.0046 15.7264C47.0524 16.2909 47.5478 16.7066 48.1125 16.6617C53.572 16.1999 55.9508 16.4808 56.985 16.7978C58.7044 17.3247 62.1209 20.4505 66.1242 25.1596C66.42 25.5076 66.4052 26.0196 66.0897 26.351L61.2032 31.4824C60.2865 32.4451 59.9162 33.7934 60.2126 35.0894L61.9332 42.6126C60.989 45.2086 59.5422 47.4417 57.771 49.058L56.0328 41.4578C56.0327 41.4573 56.0327 41.4566 56.0325 41.4559L55.1927 37.7839L54.641 35.3722C54.3432 34.0701 53.2023 33.1605 51.8663 33.1605H36.4496C35.9267 33.1605 35.5013 32.7352 35.5013 32.2122V29.8945V20.5332V19.1253C35.5013 18.6588 35.8348 18.2654 36.2942 18.1898C38.1425 17.8858 40.9951 17.4462 44.0891 17.0769C44.6512 17.0098 45.0526 16.4996 44.9856 15.9374C44.9185 15.3751 44.4077 14.9737 43.8461 15.0408C40.715 15.4143 37.8299 15.859 35.9613 16.1664C34.5064 16.4057 33.4507 17.6501 33.4507 19.1251V19.5078H31.0179C29.9902 19.5078 29.1543 20.3437 29.1543 21.3714V29.0561C29.1543 30.0838 29.9902 30.9197 31.0179 30.9197H33.4507V32.2122C33.4507 33.8659 34.796 35.211 36.4495 35.211H51.8666C52.2401 35.211 52.5589 35.4652 52.6422 35.8291L52.7749 36.4095H52.318C50.581 36.4095 49.168 37.8226 49.168 39.5595C49.168 41.2964 50.5811 42.7095 52.318 42.7095H54.2157C56.4245 52.3677 56.3538 52.2518 56.6674 52.9091C57.4596 54.5765 59.1866 55.677 61.0866 55.6384C62.0327 58.843 65 61.0703 68.3513 61.0703H68.7341C69.3005 61.0703 69.7594 60.6113 69.7594 60.045C69.7596 59.4789 69.3007 59.02 68.7344 59.02ZM33.451 28.8693H31.2051V21.5586H33.451V28.8693ZM52.3183 40.6593C51.7121 40.6593 51.2188 40.166 51.2188 39.5598C51.2188 38.9536 51.7121 38.4603 52.3183 38.4603H53.244L53.2581 38.5218L53.747 40.6593H52.3183ZM60.1345 53.4463C59.2539 53.1528 58.5409 52.4235 58.3194 51.4546L58.2857 51.3069C60.0302 49.95 61.5381 48.1083 62.6946 45.9407L63.6755 50.2296C63.696 50.319 63.7119 50.4088 63.7234 50.4986C63.9794 52.5003 62.0465 54.0834 60.1345 53.4463Z" fill="#D65B97"/>
</svg>
