<svg width="70" height="70" viewBox="0 0 70 70" fill="none" xmlns="http://www.w3.org/2000/svg">
<path d="M54.736 9.65111C54.4325 9.17301 53.7986 9.03178 53.3207 9.33502C52.8426 9.63854 52.7011 10.2721 53.0046 10.7503C54.9044 13.7428 55.9088 17.2067 55.9088 20.7674V59.2595C55.9088 60.6624 54.7674 61.8036 53.3648 61.8036H51.5448V56.4338C51.5448 51.4162 47.9329 47.2287 43.173 46.3284C49.4674 43.2809 53.8187 36.8288 53.8187 29.3791V18.616C53.8187 17.8128 53.1894 17.1474 52.3863 17.1009C47.5952 16.8237 43.841 15.8912 41.0923 12.2419C40.6336 11.6327 39.769 11.4819 39.1245 11.8985C33.558 15.4956 26.9423 17.1072 17.6737 17.1243C16.8509 17.1258 16.1816 17.7955 16.1816 18.6171V24.3087C16.1816 24.875 16.6405 25.3341 17.207 25.3341C17.7734 25.3341 18.2324 24.875 18.2324 24.3087V19.1721C27.3892 19.0926 34.0848 17.4578 39.7902 13.9048C43.0501 17.9085 47.44 18.8228 51.768 19.1168V29.3789C51.768 38.6247 44.2458 46.1468 35.0001 46.1468C25.7543 46.1468 18.2322 38.6247 18.2322 29.3789V28.4085C18.2322 27.8422 17.7733 27.3831 17.2068 27.3831C16.6404 27.3831 16.1814 27.8422 16.1814 28.4085V29.3789C16.1814 36.8286 20.5328 43.2809 26.8272 46.3282C22.0675 47.2285 18.4553 51.4161 18.4553 56.4337V61.8034H16.6353C15.2325 61.8034 14.0913 60.6621 14.0913 59.2594V20.7674C14.0916 10.4471 22.4879 2.05078 32.8082 2.05078H37.1921C42.2693 2.05078 47.0215 4.05111 50.5734 7.68318C50.9694 8.08787 51.6187 8.09553 52.0235 7.69945C52.4283 7.30352 52.4356 6.65424 52.0396 6.24941C48.0987 2.21936 42.8257 0 37.1921 0H32.8082C21.3569 0 12.0408 9.31629 12.0408 20.7674V59.2595C12.0408 61.7932 14.1021 63.8544 16.6356 63.8544H18.4556V67.795C18.4556 69.0108 19.4446 70 20.6605 70H39.7527C40.3191 70 40.7781 69.541 40.7781 68.9746C40.7781 68.4082 40.3191 67.9492 39.7527 67.9492H20.6603C20.5754 67.9492 20.5063 67.88 20.5063 67.795V56.4337C20.5063 51.8922 24.2009 48.1975 28.7425 48.1975H30.284V49.6017C30.284 52.2003 32.3981 54.3144 34.9967 54.3144C37.5953 54.3144 39.7094 52.2003 39.7094 49.6017V48.1975H41.2577C45.7992 48.1975 49.4939 51.8922 49.4939 56.4337V67.795C49.4939 67.88 49.4247 67.9492 49.3397 67.9492H43.8522C43.2858 67.9492 42.8268 68.4082 42.8268 68.9746C42.8268 69.541 43.2858 70 43.8522 70H49.3397C50.5555 70 51.5447 69.0108 51.5447 67.795V63.8544H53.3647C55.8982 63.8544 57.9594 61.793 57.9594 59.2595V20.7674C57.9595 16.8168 56.8449 12.9728 54.736 9.65111ZM34.9968 52.2636C33.5291 52.2636 32.3349 51.0695 32.3349 49.6017V48.008C33.2059 48.132 34.0956 48.1976 35.0002 48.1976C35.9026 48.1976 36.7899 48.1324 37.6586 48.0089V49.6017C37.6587 51.0695 36.4645 52.2636 34.9968 52.2636Z" fill="#D65B97"/>
<path d="M28.1977 22.9856C26.3378 22.9856 24.8247 24.4987 24.8247 26.3586C24.8247 26.9249 25.2837 27.384 25.8501 27.384C26.4165 27.384 26.8755 26.9249 26.8755 26.3586C26.8755 25.6295 27.4686 25.0364 28.1977 25.0364C28.9268 25.0364 29.5199 25.6295 29.5199 26.3586C29.5199 26.9249 29.9789 27.384 30.5453 27.384C31.1117 27.384 31.5707 26.9249 31.5707 26.3586C31.5707 24.4987 30.0576 22.9856 28.1977 22.9856Z" fill="#D65B97"/>
<path d="M40.4802 26.3586C40.4802 25.6295 41.0733 25.0364 41.8024 25.0364C42.5315 25.0364 43.1248 25.6295 43.1248 26.3586C43.1248 26.9249 43.5837 27.384 44.1502 27.384C44.7166 27.384 45.1756 26.9249 45.1756 26.3586C45.1756 24.4987 43.6625 22.9856 41.8024 22.9856C39.9425 22.9856 38.4294 24.4987 38.4294 26.3586C38.4294 26.9249 38.8884 27.384 39.4548 27.384C40.0213 27.384 40.4802 26.9249 40.4802 26.3586Z" fill="#D65B97"/>
<path d="M29.6693 35.658C29.4479 35.1369 28.8458 34.894 28.3246 35.1153C27.8035 35.3367 27.5604 35.9387 27.7819 36.4599C29.0147 39.3616 31.8479 41.2364 35.0001 41.2364C38.1523 41.2364 40.9855 39.3616 42.2184 36.4599C42.4399 35.9387 42.197 35.3366 41.6756 35.1153C41.1546 34.894 40.5525 35.1369 40.331 35.658C39.4205 37.801 37.3279 39.1856 35.0001 39.1856C32.6723 39.1856 30.5798 37.801 29.6693 35.658Z" fill="#D65B97"/>
</svg>
