<svg width="223" height="97" viewBox="0 0 223 97" fill="none" xmlns="http://www.w3.org/2000/svg">
<g clip-path="url(#clip0_116_106)">
<path d="M11.2934 59.5796C11.3 59.6384 11.294 59.6979 11.276 59.7542C11.2579 59.8106 11.2282 59.8625 11.1886 59.9066C11.1491 59.9507 11.1007 59.986 11.0465 60.0101C10.9924 60.0343 10.9337 60.0468 10.8744 60.0468C10.8151 60.0468 10.7565 60.0343 10.7024 60.0101C10.6482 59.986 10.5998 59.9507 10.5603 59.9066C10.5207 59.8625 10.4909 59.8106 10.4729 59.7542C10.4548 59.6979 10.4489 59.6384 10.4555 59.5796V30.0416H0.92117C0.818106 30.0301 0.722899 29.9811 0.653756 29.904C0.584613 29.8269 0.546387 29.7271 0.546387 29.6236C0.546387 29.5202 0.584613 29.4203 0.653756 29.3432C0.722899 29.2661 0.818106 29.2171 0.92117 29.2057H20.8121C20.9152 29.2171 21.0104 29.2661 21.0795 29.3432C21.1486 29.4203 21.1869 29.5202 21.1869 29.6236C21.1869 29.7271 21.1486 29.8269 21.0795 29.904C21.0104 29.9811 20.9152 30.0301 20.8121 30.0416H11.2934V59.5796Z" stroke="#95783B" stroke-width="1.16689" stroke-miterlimit="22.93"/>
<path d="M46.9274 34.3978C45.8121 33.035 44.407 31.9367 42.8138 31.1824C41.2206 30.4282 39.4792 30.0369 37.7158 30.0369C35.9523 30.0369 34.2109 30.4282 32.6177 31.1824C31.0245 31.9367 29.6194 33.035 28.5041 34.3978C26.0226 37.3702 24.6637 41.1162 24.6637 44.9845C24.6637 48.8528 26.0226 52.5989 28.5041 55.5712C29.6194 56.9331 31.0243 58.0306 32.617 58.7843C34.2097 59.5379 35.9504 59.9289 37.7132 59.9289C39.4759 59.9289 41.2167 59.5379 42.8094 58.7843C44.4021 58.0306 45.8069 56.9331 46.9222 55.5712C49.4037 52.5989 50.7626 48.8528 50.7626 44.9845C50.7626 41.1162 49.4037 37.3702 46.9222 34.3978H46.9274ZM37.721 29.2057C39.5969 29.226 41.4465 29.6493 43.1438 30.4467C44.8411 31.2441 46.3464 32.3969 47.5571 33.8266C50.1726 36.9502 51.6054 40.8911 51.6054 44.9611C51.6054 49.0312 50.1726 52.972 47.5571 56.0956C46.3641 57.5484 44.8627 58.7188 43.1613 59.5225C41.4599 60.3261 39.6008 60.743 37.7184 60.743C35.8359 60.743 33.9769 60.3261 32.2755 59.5225C30.574 58.7188 29.0726 57.5484 27.8796 56.0956C25.2641 52.972 23.8313 49.0312 23.8313 44.9611C23.8313 40.8911 25.2641 36.9502 27.8796 33.8266C29.0916 32.397 30.5978 31.2444 32.2959 30.4471C33.994 29.6497 35.8443 29.2263 37.721 29.2057V29.2057Z" stroke="#95783B" stroke-width="1.16689" stroke-miterlimit="22.93"/>
<path d="M109.691 50.0987H125.304L117.633 30.7114L109.691 50.0987ZM108.651 50.3895C108.649 50.367 108.649 50.3445 108.651 50.322L117.233 29.4393C117.263 29.3615 117.316 29.2947 117.386 29.2476C117.455 29.2005 117.537 29.1753 117.62 29.1753C117.704 29.1753 117.786 29.2005 117.855 29.2476C117.924 29.2947 117.977 29.3615 118.008 29.4393V29.4393L126.257 50.3324V50.3791L129.869 59.5328C129.888 59.584 129.898 59.6385 129.897 59.6933C129.895 59.7481 129.883 59.8021 129.861 59.8523C129.839 59.9024 129.807 59.9477 129.767 59.9855C129.727 60.0234 129.681 60.053 129.629 60.0728C129.578 60.0926 129.523 60.1021 129.468 60.1008C129.413 60.0995 129.359 60.0874 129.309 60.0652C129.259 60.043 129.213 60.0112 129.175 59.9715C129.138 59.9318 129.108 59.8851 129.088 59.834L125.575 50.9243H109.327L105.684 59.808C105.657 59.8925 105.603 59.9661 105.531 60.0183C105.459 60.0706 105.372 60.0987 105.283 60.0988H86.4854C86.4307 60.0981 86.3767 60.0867 86.3265 60.0652C86.2762 60.0437 86.2307 60.0125 86.1925 59.9734C86.1543 59.9344 86.1242 59.8882 86.1039 59.8376C86.0837 59.7869 86.0736 59.7328 86.0743 59.6782L86.4802 30.0208C86.4802 29.9107 86.5241 29.805 86.6021 29.7271C86.6802 29.6492 86.7861 29.6055 86.8965 29.6055C87.007 29.6055 87.1129 29.6492 87.1909 29.7271C87.269 29.805 87.3129 29.9107 87.3129 30.0208L86.9121 59.2525H105.008L108.651 50.3895Z" stroke="#95783B" stroke-width="1.16689" stroke-miterlimit="22.93"/>
<path d="M162.224 45.2493V59.3044H178.722C178.781 59.2978 178.84 59.3037 178.897 59.3217C178.953 59.3397 179.005 59.3694 179.049 59.4089C179.094 59.4483 179.129 59.4966 179.153 59.5507C179.177 59.6047 179.19 59.6632 179.19 59.7223C179.19 59.7815 179.177 59.84 179.153 59.894C179.129 59.948 179.094 59.9963 179.049 60.0358C179.005 60.0752 178.953 60.1049 178.897 60.1229C178.84 60.1409 178.781 60.1469 178.722 60.1403H161.802C161.748 60.1403 161.694 60.1296 161.643 60.1087C161.593 60.0878 161.547 60.0572 161.508 60.0186C161.469 59.9801 161.439 59.9343 161.418 59.8839C161.397 59.8335 161.386 59.7795 161.386 59.7249V29.9793C161.385 29.9243 161.396 29.8697 161.416 29.8187C161.437 29.7677 161.467 29.7213 161.506 29.6822C161.545 29.6431 161.591 29.612 161.642 29.5908C161.693 29.5696 161.747 29.5587 161.802 29.5587H178.232C178.291 29.5522 178.351 29.5581 178.408 29.5761C178.464 29.5941 178.516 29.6238 178.56 29.6632C178.604 29.7027 178.64 29.751 178.664 29.805C178.688 29.859 178.701 29.9175 178.701 29.9767C178.701 30.0358 178.688 30.0943 178.664 30.1484C178.64 30.2024 178.604 30.2507 178.56 30.2901C178.516 30.3296 178.464 30.3593 178.408 30.3773C178.351 30.3953 178.291 30.4012 178.232 30.3946H162.224V44.3718" stroke="#95783B" stroke-width="1.16689" stroke-miterlimit="22.93"/>
<path d="M161.917 44.3719L177.879 44.4342C177.982 44.4456 178.077 44.4946 178.146 44.5717C178.215 44.6488 178.253 44.7487 178.253 44.8521C178.253 44.9556 178.215 45.0554 178.146 45.1325C178.077 45.2096 177.982 45.2586 177.879 45.2701H161.917" stroke="#95783B" stroke-width="1.16689" stroke-miterlimit="22.93"/>
<path d="M59.6831 30.1247V48.6709H70.0189C71.9445 48.5879 74.0418 47.4819 75.6396 45.888C77.154 44.3771 78.2105 42.43 78.2105 40.5193V40.483C78.2324 38.0616 77.5273 35.6891 76.186 33.6709C74.9005 31.6823 73.1467 30.2233 71.3564 30.1351L59.6831 30.1247ZM59.6831 59.6471C59.6716 59.7499 59.6225 59.8449 59.5452 59.9139C59.4679 59.9828 59.3679 60.021 59.2642 60.021C59.1605 60.021 59.0604 59.9828 58.9831 59.9139C58.9058 59.8449 58.8567 59.7499 58.8452 59.6471V29.7093C58.8452 29.5992 58.8891 29.4935 58.9672 29.4156C59.0452 29.3377 59.1511 29.2939 59.2616 29.2939H71.3928C73.4746 29.3926 75.4626 31.0073 76.8834 33.2036C78.3203 35.3699 79.0727 37.9166 79.0432 40.5141V40.5141C79.0432 42.6637 77.893 44.8132 76.2329 46.4695C74.4946 48.2036 72.1787 49.4082 70.0345 49.4913H59.6831V59.6471Z" stroke="#95783B" stroke-width="1.16689" stroke-miterlimit="22.93"/>
<path d="M188.121 30.3427V48.8838H198.462C200.387 48.8007 202.485 47.6948 204.082 46.1008C205.597 44.5899 206.648 42.6429 206.648 40.7322V40.6958C206.668 38.2746 205.964 35.9026 204.624 33.8838C203.333 31.8952 201.579 30.4362 199.794 30.3479L188.121 30.3427ZM200.611 49.2992L212.888 68.349C224.889 49.0603 223.401 32.1132 215.261 20.0987C211.099 14.0627 205.433 9.21166 198.821 6.02285C192.206 2.76021 184.89 1.16468 177.514 1.37591C162.692 1.86916 147.985 10.5919 140.876 29.4133L153.153 29.6626C153.208 29.6626 153.263 29.6735 153.313 29.6947C153.364 29.7159 153.41 29.7469 153.449 29.7861C153.488 29.8252 153.518 29.8716 153.539 29.9226C153.56 29.9736 153.57 30.0281 153.569 30.0831C153.567 30.1645 153.541 30.2436 153.496 30.3116L134.953 59.268H153.408C153.467 59.2615 153.527 59.2674 153.583 59.2854C153.64 59.3034 153.692 59.3331 153.736 59.3725C153.78 59.412 153.815 59.4603 153.84 59.5143C153.864 59.5683 153.876 59.6268 153.876 59.686C153.876 59.7452 153.864 59.8037 153.84 59.8577C153.815 59.9117 153.78 59.96 153.736 59.9994C153.692 60.0389 153.64 60.0686 153.583 60.0866C153.527 60.1046 153.467 60.1105 153.408 60.104H142.645C143.015 61.9835 148.485 70.2078 149.411 71.2826C152.081 74.1177 155.202 76.4931 158.649 78.3127C158.744 78.3673 158.815 78.4571 158.845 78.5629C158.875 78.6686 158.863 78.782 158.81 78.8787C158.755 78.9755 158.664 79.0469 158.557 79.077C158.45 79.1072 158.335 79.0937 158.238 79.0396C154.189 76.7759 151.227 74.725 148.662 71.9576C147.022 70.1871 141.511 60.7893 141.167 60.104H134.188C134.109 60.1048 134.031 60.0812 133.965 60.0365C133.872 59.9777 133.806 59.8847 133.781 59.7777C133.757 59.6707 133.776 59.5584 133.834 59.4653L152.398 30.4933L133.939 30.2597C133.884 30.2597 133.83 30.2489 133.779 30.228C133.729 30.2072 133.683 30.1766 133.644 30.138C133.606 30.0994 133.575 30.0536 133.554 30.0032C133.533 29.9528 133.522 29.8988 133.522 29.8443C133.522 29.7897 133.533 29.7357 133.554 29.6853C133.575 29.6349 133.606 29.5891 133.644 29.5506C133.683 29.512 133.729 29.4814 133.779 29.4605C133.83 29.4397 133.884 29.4289 133.939 29.4289H139.981C147.199 10.0883 162.307 1.0488 177.494 0.545166C185.009 0.325916 192.464 1.94821 199.206 5.26999C205.945 8.52703 211.72 13.476 215.964 19.6314C224.343 32.0146 225.852 49.4913 213.263 69.3304C213.231 69.3894 213.184 69.4394 213.128 69.4757C213.081 69.5056 213.03 69.5261 212.976 69.536C212.922 69.5459 212.866 69.545 212.813 69.5334C212.759 69.5218 212.708 69.4998 212.663 69.4685C212.618 69.4372 212.579 69.3973 212.55 69.3511L199.778 49.5432C199.343 49.6288 198.904 49.6895 198.462 49.7249H188.121V59.8651C188.121 59.9753 188.077 60.0809 187.999 60.1588C187.921 60.2367 187.815 60.2805 187.704 60.2805C187.594 60.2805 187.488 60.2367 187.41 60.1588C187.332 60.0809 187.288 59.9753 187.288 59.8651V29.9274C187.287 29.8724 187.298 29.8178 187.318 29.7668C187.339 29.7158 187.369 29.6694 187.408 29.6303C187.447 29.5912 187.493 29.5601 187.544 29.5389C187.595 29.5177 187.649 29.5068 187.704 29.5068H199.836C201.917 29.6055 203.9 31.2202 205.326 33.4165C206.76 35.5841 207.512 38.1299 207.486 40.727V40.727C207.486 42.8765 206.331 45.026 204.67 46.6823C203.532 47.8453 202.146 48.7394 200.616 49.2992H200.611Z" stroke="#95783B" stroke-width="1.16689" stroke-linecap="round" stroke-linejoin="round"/>
<path d="M7.86881 71.916C6.94714 71.8815 6.02681 72.0134 5.15216 72.3054C4.71182 72.4405 4.32311 72.706 4.03772 73.0668C3.75232 73.4276 3.58376 73.8665 3.55443 74.3252C3.19013 77.5079 5.78188 77.9597 8.28516 78.4166C10.1587 78.754 11.975 79.076 11.9698 80.7011C11.9696 80.8966 11.9326 81.0904 11.8605 81.2722C11.5855 81.8499 11.1105 82.309 10.523 82.5651C9.66088 82.9616 8.71896 83.1552 7.76993 83.131C6.33994 83.1 4.92817 82.8042 3.60647 82.2587C3.55692 82.2384 3.50391 82.2278 3.45035 82.2276C3.35216 82.2261 3.25662 82.2593 3.1806 82.3214C3.10459 82.3834 3.05299 82.4702 3.03493 82.5665C3.01687 82.6628 3.03351 82.7624 3.08191 82.8476C3.13031 82.9329 3.20735 82.9983 3.29942 83.0324C4.71464 83.6181 6.22759 83.9334 7.75952 83.9617H7.79075C8.86786 83.9886 9.93659 83.7665 10.9133 83.3127C11.6862 82.9668 12.3048 82.3496 12.6516 81.5786C12.763 81.2993 12.8212 81.0017 12.8233 80.7011C12.8233 78.3802 10.6687 77.9908 8.44649 77.5858C6.32313 77.2068 4.1217 76.8174 4.39753 74.4082C4.4239 74.1066 4.5408 73.8199 4.73298 73.5856C4.92516 73.3512 5.18369 73.1801 5.47483 73.0946C6.24588 72.839 7.05695 72.7246 7.86881 72.7571C8.86163 72.7673 9.85266 72.8436 10.8353 72.9856H10.8873C10.9977 72.9932 11.1067 72.9567 11.1901 72.8841C11.2736 72.8116 11.3247 72.7089 11.3323 72.5988C11.3399 72.4886 11.3033 72.38 11.2306 72.2967C11.1579 72.2135 11.055 72.1624 10.9446 72.1549C9.93066 72.0117 8.9084 71.9354 7.88443 71.9264L7.86881 71.916Z" fill="#95783B" stroke="#95783B" stroke-width="0.5"/>
<path d="M27.0572 71.9108C26.9463 71.9122 26.8404 71.9571 26.7625 72.0358C26.6846 72.1145 26.6409 72.2207 26.6409 72.3314L26.7398 80.6855C26.7398 82.3418 28.197 83.4114 30.0237 83.8683C30.7049 84.0351 31.4039 84.1187 32.1054 84.1175H32.1835C32.9181 84.1185 33.6495 84.0224 34.3589 83.8319C36.1648 83.3127 37.57 82.212 37.5647 80.3999L37.5387 72.5443C37.5387 72.4341 37.4949 72.3285 37.4168 72.2506C37.3387 72.1727 37.2328 72.1289 37.1224 72.1289C37.012 72.1289 36.9061 72.1727 36.828 72.2506C36.7499 72.3285 36.706 72.4341 36.706 72.5443V80.3999C36.706 81.7655 35.5767 82.6325 34.1039 83.0323C33.4656 83.2025 32.8077 83.288 32.147 83.2868C31.5019 83.2899 30.8588 83.2149 30.2319 83.0635C28.7538 82.6949 27.5933 81.8849 27.5829 80.6803L27.4632 72.3262C27.4618 72.2164 27.4175 72.1116 27.3397 72.034C27.2619 71.9564 27.1568 71.9122 27.0468 71.9108H27.0572Z" fill="#95783B" stroke="#95783B" stroke-width="0.5"/>
<path d="M59.2409 71.8849C59.1314 71.8849 59.0263 71.9279 58.9483 72.0047C58.8704 72.0815 58.8259 72.1858 58.8246 72.2951L58.6892 83.1206C58.6886 83.1752 58.6986 83.2293 58.7189 83.28C58.7392 83.3306 58.7693 83.3768 58.8075 83.4159C58.8457 83.4549 58.8912 83.4861 58.9414 83.5076C58.9917 83.5291 59.0457 83.5405 59.1004 83.5412C59.1548 83.5419 59.2088 83.5318 59.2593 83.5115C59.3098 83.4912 59.3557 83.4611 59.3945 83.4229C59.4332 83.3847 59.464 83.3393 59.4849 83.2892C59.5059 83.2391 59.5167 83.1853 59.5167 83.131L59.6677 72.3054C59.6691 72.2507 59.6594 72.1963 59.6394 72.1453C59.6194 72.0943 59.5893 72.0479 59.551 72.0087C59.5127 71.9695 59.4669 71.9383 59.4163 71.9171C59.3657 71.8958 59.3114 71.8849 59.2565 71.8849H59.2409Z" fill="#95783B" stroke="#95783B" stroke-width="0.5"/>
<path d="M70.3414 71.8797C68.456 71.861 66.6204 72.4836 65.1371 73.645C64.4519 74.1466 63.8947 74.8021 63.5107 75.5584C63.1266 76.3148 62.9265 77.1507 62.9265 77.9986C62.9265 78.8465 63.1266 79.6824 63.5107 80.4388C63.8947 81.1951 64.4519 81.8506 65.1371 82.3522C66.6391 83.4975 68.477 84.1179 70.3675 84.1179C72.2579 84.1179 74.0958 83.4975 75.5978 82.3522C76.283 81.8506 76.8402 81.1951 77.2242 80.4388C77.6083 79.6824 77.8084 78.8465 77.8084 77.9986C77.8084 77.1507 77.6083 76.3148 77.2242 75.5584C76.8402 74.8021 76.283 74.1466 75.5978 73.645C74.1064 72.4802 72.2614 71.8575 70.3675 71.8797H70.3414ZM70.3414 83.3023C68.6484 83.3275 66.9969 82.7783 65.6575 81.7447C65.0676 81.3221 64.587 80.7655 64.2555 80.1208C63.924 79.4762 63.7511 78.7621 63.7511 78.0375C63.7511 77.313 63.924 76.5989 64.2555 75.9542C64.587 75.3096 65.0676 74.753 65.6575 74.3304C67.0125 73.3094 68.6642 72.7571 70.3623 72.7571C72.0603 72.7571 73.712 73.3094 75.067 74.3304C75.6549 74.7543 76.1336 75.3115 76.4637 75.9559C76.7939 76.6004 76.966 77.3138 76.966 78.0375C76.966 78.7613 76.7939 79.4747 76.4637 80.1192C76.1336 80.7636 75.6549 81.3207 75.067 81.7447C73.7272 82.7776 72.076 83.3267 70.3831 83.3023H70.3414Z" fill="#95783B" stroke="#95783B" stroke-width="0.5"/>
<path d="M42.6183 71.916C42.5078 71.916 42.4019 71.9598 42.3238 72.0377C42.2458 72.1156 42.2019 72.2212 42.2019 72.3314L42.2331 83.5827C42.2331 83.6372 42.2439 83.6913 42.2648 83.7417C42.2857 83.7921 42.3164 83.8378 42.3551 83.8764C42.3937 83.915 42.4396 83.9456 42.4901 83.9665C42.5407 83.9873 42.5948 83.9981 42.6495 83.9981H48.1452C49.9701 84.0447 51.7441 83.3947 53.105 82.1808C53.7081 81.6261 54.1893 80.9525 54.5181 80.2027C54.8469 79.4528 55.0161 78.6431 55.0149 77.8246C55.0247 77.0178 54.8542 76.2189 54.5157 75.486C54.1772 74.7531 53.6793 74.1047 53.0581 73.5879C51.6531 72.4853 49.9062 71.9068 48.1192 71.9524L42.613 71.916H42.6183ZM48.1452 83.1777L43.0762 83.1518L43.0346 72.7675L48.1192 72.8039C49.7106 72.7586 51.2678 73.2692 52.5221 74.2473C53.0497 74.686 53.4725 75.2367 53.7597 75.8592C54.0469 76.4817 54.1913 77.1602 54.1822 77.8454C54.1815 78.55 54.0346 79.2469 53.7506 79.892C53.4667 80.5372 53.0519 81.1167 52.5325 81.5941C51.3253 82.6602 49.7568 83.2282 48.1452 83.1829V83.1777Z" fill="#95783B" stroke="#95783B" stroke-width="0.5"/>
<path d="M24.4396 71.8797H13.828C13.7171 71.8811 13.6112 71.926 13.5332 72.0047C13.4553 72.0834 13.4116 72.1896 13.4116 72.3003C13.4116 72.4104 13.4555 72.5161 13.5336 72.594C13.6116 72.6719 13.7175 72.7156 13.828 72.7156H18.7148V83.375C18.7148 83.4852 18.7587 83.5908 18.8368 83.6687C18.9149 83.7466 19.0208 83.7904 19.1312 83.7904C19.2416 83.7904 19.3475 83.7466 19.4256 83.6687C19.5037 83.5908 19.5475 83.4852 19.5475 83.375V72.7156H24.4396C24.55 72.7156 24.6559 72.6719 24.734 72.594C24.8121 72.5161 24.8559 72.4104 24.8559 72.3003C24.8559 72.1896 24.8122 72.0834 24.7343 72.0047C24.6564 71.926 24.5505 71.8811 24.4396 71.8797Z" fill="#95783B" stroke="#95783B" stroke-width="0.5"/>
<path d="M166.179 73.9669C166.141 73.7886 166.175 73.6022 166.274 73.4489C166.373 73.2955 166.529 73.1877 166.708 73.1491C166.886 73.1106 167.073 73.1444 167.227 73.2433C167.381 73.3421 167.489 73.4978 167.527 73.6761L168.412 77.8298L168.36 75.2338C168.375 75.0616 168.454 74.9014 168.582 74.7846C168.709 74.6678 168.876 74.6031 169.05 74.6031C169.223 74.6031 169.39 74.6678 169.517 74.7846C169.645 74.9014 169.724 75.0616 169.739 75.2338L169.874 79.159L171.696 73.6086C171.762 73.4472 171.888 73.3168 172.047 73.2438C172.206 73.1708 172.387 73.1606 172.553 73.2152C172.719 73.2698 172.858 73.3852 172.943 73.5382C173.027 73.6911 173.05 73.8703 173.007 74.0396L171.639 78.5048L173.106 76.2774C173.206 76.1245 173.362 76.0173 173.541 75.9794C173.719 75.9414 173.906 75.9758 174.059 76.0749C174.212 76.1741 174.319 76.3299 174.357 76.508C174.396 76.6862 174.361 76.8722 174.262 77.0251L172.758 79.2992L175.958 76.3189C176.023 76.253 176.1 76.2008 176.185 76.1653C176.27 76.1298 176.362 76.1118 176.454 76.1124C176.546 76.1129 176.638 76.132 176.722 76.1685C176.807 76.2051 176.884 76.2582 176.947 76.3249C177.011 76.3916 177.06 76.4704 177.093 76.5566C177.125 76.6428 177.14 76.7346 177.136 76.8266C177.132 76.9186 177.11 77.0089 177.07 77.0921C177.031 77.1752 176.975 77.2496 176.905 77.3106L173.544 80.862L176.146 79.6834C176.312 79.6085 176.5 79.6014 176.671 79.6634C176.843 79.7255 176.983 79.852 177.062 80.0157C177.138 80.1803 177.146 80.3684 177.083 80.5387C177.021 80.709 176.893 80.8477 176.729 80.9244L175.214 81.5941L179.378 80.7997C179.466 80.7803 179.557 80.7784 179.646 80.7941C179.735 80.8098 179.82 80.8428 179.896 80.8913C179.972 80.9397 180.038 81.0027 180.089 81.0765C180.141 81.1503 180.178 81.2336 180.197 81.3215C180.217 81.4095 180.219 81.5004 180.203 81.5891C180.187 81.6778 180.154 81.7626 180.105 81.8385C180.057 81.9144 179.994 81.9801 179.92 82.0317C179.846 82.0833 179.762 82.1199 179.674 82.1393L175.344 82.9908L177.192 83.1102C177.287 83.1019 177.384 83.1136 177.474 83.1444C177.565 83.1752 177.649 83.2245 177.719 83.2892C177.79 83.3539 177.847 83.4325 177.885 83.5202C177.924 83.6078 177.944 83.7025 177.944 83.7982C177.944 83.8939 177.924 83.9886 177.885 84.0762C177.847 84.1638 177.79 84.2425 177.719 84.3072C177.649 84.3719 177.565 84.4212 177.474 84.452C177.384 84.4828 177.287 84.4944 177.192 84.4861L175.027 84.7146L179.711 85.8776C179.878 85.9309 180.019 86.0465 180.104 86.2004C180.189 86.3544 180.212 86.535 180.167 86.7049C180.122 86.8748 180.014 87.0211 179.864 87.1136C179.714 87.206 179.534 87.2375 179.362 87.2016L174.532 86.1165L176.812 87.6741C176.968 87.7691 177.08 87.9221 177.122 88.0993C177.165 88.2765 177.136 88.4635 177.041 88.6191C176.946 88.7747 176.792 88.8862 176.615 88.929C176.437 88.9719 176.25 88.9425 176.094 88.8475L174.184 87.9181L176.708 90.4156C176.836 90.5448 176.908 90.7193 176.908 90.901C176.908 91.0828 176.836 91.2572 176.708 91.3865C176.644 91.4504 176.568 91.5011 176.485 91.5357C176.401 91.5702 176.312 91.5881 176.221 91.5881C176.131 91.5881 176.041 91.5702 175.958 91.5357C175.874 91.5011 175.798 91.4504 175.735 91.3865L172.513 88.4945L173.377 90.7738C173.418 90.8543 173.442 90.9419 173.449 91.0318C173.455 91.1216 173.444 91.2119 173.416 91.2975C173.388 91.3831 173.343 91.4623 173.284 91.5305C173.225 91.5988 173.153 91.6548 173.073 91.6954C172.992 91.736 172.904 91.7603 172.814 91.767C172.724 91.7737 172.633 91.7626 172.548 91.7344C172.462 91.7062 172.382 91.6614 172.314 91.6026C172.246 91.5438 172.189 91.4721 172.149 91.3917L171.061 89.6886L172.055 93.915C172.082 94.0041 172.091 94.0977 172.08 94.1901C172.07 94.2825 172.041 94.3719 171.994 94.4527C171.948 94.5336 171.886 94.6042 171.812 94.6602C171.737 94.7163 171.652 94.7567 171.562 94.7789C171.471 94.8012 171.377 94.8048 171.285 94.7895C171.193 94.7743 171.105 94.7406 171.027 94.6903C170.948 94.6401 170.881 94.5745 170.828 94.4974C170.776 94.4204 170.74 94.3335 170.723 94.2421L169.848 90.4467L169.76 94.7406C169.768 94.836 169.757 94.932 169.726 95.0226C169.695 95.1133 169.645 95.1965 169.581 95.2671C169.516 95.3376 169.437 95.394 169.349 95.4325C169.261 95.4711 169.166 95.491 169.07 95.491C168.974 95.491 168.88 95.4711 168.792 95.4325C168.704 95.394 168.625 95.3376 168.56 95.2671C168.495 95.1965 168.446 95.1133 168.415 95.0226C168.384 94.932 168.373 94.836 168.381 94.7406V89.8756L167.543 92.3574C167.522 92.4481 167.482 92.5336 167.427 92.6086C167.371 92.6835 167.301 92.7464 167.22 92.7934C167.14 92.8404 167.05 92.8704 166.958 92.8818C166.865 92.8931 166.771 92.8854 166.681 92.8593C166.591 92.8331 166.508 92.789 166.436 92.7296C166.364 92.6702 166.305 92.5968 166.263 92.5139C166.22 92.431 166.195 92.3402 166.189 92.2473C166.182 92.1543 166.195 92.061 166.226 91.9732L166.955 89.4498L164.467 93.2764C164.419 93.3528 164.357 93.419 164.283 93.4713C164.21 93.5236 164.127 93.5609 164.039 93.5811C163.951 93.6014 163.86 93.6042 163.771 93.5893C163.682 93.5744 163.597 93.5422 163.52 93.4945C163.443 93.4467 163.377 93.3844 163.325 93.3111C163.272 93.2378 163.235 93.1549 163.215 93.0672C163.194 92.9794 163.191 92.8885 163.206 92.7997C163.221 92.7109 163.254 92.6259 163.301 92.5495L165.867 88.4425L163.666 90.2286C163.527 90.3386 163.35 90.3906 163.174 90.3738C162.997 90.3569 162.834 90.2726 162.718 90.1384C162.602 90.0042 162.543 89.8305 162.553 89.6538C162.563 89.477 162.641 89.3109 162.771 89.1902L164.988 87.2951L160.252 89.4239C160.169 89.461 160.08 89.4816 159.99 89.4845C159.9 89.4874 159.81 89.4725 159.725 89.4407C159.641 89.4089 159.563 89.3607 159.497 89.2991C159.431 89.2374 159.378 89.1633 159.341 89.0812C159.304 88.999 159.283 88.9103 159.28 88.8202C159.277 88.7301 159.292 88.6403 159.324 88.5559C159.356 88.4715 159.404 88.3942 159.466 88.3285C159.528 88.2627 159.602 88.2097 159.684 88.1726L164.092 86.2151L161.334 86.698C161.154 86.7283 160.969 86.6859 160.82 86.5803C160.672 86.4747 160.571 86.3143 160.541 86.1346C160.51 85.9549 160.553 85.7706 160.658 85.6221C160.764 85.4736 160.925 85.3731 161.105 85.3428L163.707 84.8236L158.342 84.4394C158.25 84.4353 158.159 84.4127 158.076 84.373C157.993 84.3333 157.918 84.2773 157.857 84.2083C157.796 84.1394 157.75 84.0588 157.721 83.9715C157.691 83.8842 157.68 83.7919 157.687 83.7002C157.695 83.6084 157.721 83.5191 157.763 83.4375C157.806 83.356 157.865 83.2838 157.936 83.2253C158.007 83.1669 158.09 83.1234 158.178 83.0973C158.267 83.0713 158.359 83.0633 158.451 83.0739L164.238 83.4633L160.246 81.5941C160.164 81.558 160.089 81.506 160.026 81.441C159.964 81.376 159.915 81.2994 159.882 81.2155C159.849 81.1316 159.833 81.0421 159.835 80.9521C159.837 80.862 159.856 80.7732 159.893 80.6907C159.929 80.6082 159.981 80.5336 160.046 80.4712C160.111 80.4088 160.188 80.3598 160.272 80.3271C160.356 80.2943 160.446 80.2783 160.536 80.2802C160.626 80.282 160.715 80.3015 160.798 80.3376L163.52 81.5422L161.792 80.3636C161.718 80.3114 161.656 80.2453 161.607 80.1689C161.559 80.0925 161.527 80.0075 161.511 79.9185C161.496 79.8295 161.499 79.7385 161.519 79.6505C161.539 79.5625 161.576 79.4793 161.628 79.4057C161.681 79.332 161.747 79.2694 161.823 79.2213C161.9 79.1732 161.985 79.1407 162.074 79.1255C162.164 79.1103 162.255 79.1128 162.343 79.1328C162.431 79.1528 162.515 79.1899 162.588 79.2421L165.113 80.9347L161.735 76.7447C161.626 76.6024 161.577 76.4232 161.599 76.2454C161.62 76.0676 161.711 75.9054 161.851 75.7934C161.991 75.6814 162.17 75.6286 162.348 75.6463C162.527 75.664 162.692 75.7507 162.807 75.888L165.633 79.1383L164.186 76.6512C164.142 76.5725 164.114 76.4858 164.103 76.3963C164.093 76.3067 164.1 76.2159 164.125 76.1291C164.149 76.0423 164.191 75.9612 164.247 75.8905C164.303 75.8197 164.373 75.7606 164.452 75.7166C164.53 75.6727 164.617 75.6446 164.707 75.6341C164.797 75.6236 164.888 75.6309 164.975 75.6555C165.062 75.6801 165.143 75.7215 165.214 75.7775C165.285 75.8334 165.344 75.9027 165.388 75.9814L167.324 79.3823L166.179 73.9669Z" stroke="#95783B" stroke-miterlimit="22.93"/>
<path d="M169.505 83.2348C169.692 83.2348 169.875 83.2902 170.031 83.3941C170.187 83.4979 170.308 83.6455 170.38 83.8182C170.451 83.9908 170.47 84.1808 170.434 84.3642C170.397 84.5475 170.307 84.7158 170.174 84.848C170.042 84.9801 169.873 85.0701 169.689 85.1066C169.506 85.1431 169.315 85.1244 169.142 85.0528C168.969 84.9813 168.821 84.8602 168.717 84.7048C168.613 84.5494 168.557 84.3667 168.557 84.1798C168.559 83.9296 168.659 83.69 168.836 83.5131C169.014 83.3362 169.254 83.2362 169.505 83.2348V83.2348Z" stroke="#95783B" stroke-width="1.16689" stroke-linecap="round" stroke-linejoin="round"/>
</g>
<defs>
<clipPath id="clip0_116_106">
<rect width="223" height="97" fill="white"/>
</clipPath>
</defs>
</svg>
