<svg width="58" height="58" viewBox="0 0 58 58" fill="none" xmlns="http://www.w3.org/2000/svg">
<path d="M50.75 24.1665C50.75 41.0832 29 55.5832 29 55.5832C29 55.5832 7.25 41.0832 7.25 24.1665C7.25 18.398 9.54151 12.8658 13.6204 8.78693C17.6993 4.70801 23.2315 2.4165 29 2.4165C34.7685 2.4165 40.3007 4.70801 44.3796 8.78693C48.4585 12.8658 50.75 18.398 50.75 24.1665Z" fill="#CC6497"/>
<path d="M25.3944 10.7261C25.3404 10.477 25.3878 10.2167 25.5262 10.0025C25.6646 9.78821 25.8826 9.63759 26.1323 9.58372C26.382 9.52986 26.6429 9.57716 26.8577 9.71523C27.0724 9.8533 27.2234 10.0708 27.2774 10.3199L28.5134 16.1227L28.4407 12.496C28.4616 12.2555 28.5722 12.0316 28.7506 11.8685C28.9289 11.7053 29.1621 11.6148 29.404 11.6148C29.646 11.6148 29.8791 11.7053 30.0575 11.8685C30.2358 12.0316 30.3464 12.2555 30.3674 12.496L30.5564 17.9795L33.1011 10.2256C33.194 10.0001 33.3691 9.81795 33.5911 9.71597C33.8132 9.61399 34.0657 9.59972 34.2979 9.67602C34.5301 9.75231 34.7248 9.91352 34.8426 10.1272C34.9605 10.3409 34.9929 10.5912 34.9332 10.8277L33.0211 17.0656L35.0713 13.9539C35.2102 13.7404 35.4283 13.5906 35.6779 13.5375C35.9274 13.4845 36.1878 13.5325 36.4018 13.671C36.6159 13.8095 36.766 14.0272 36.8192 14.2761C36.8723 14.525 36.8242 14.7849 36.6854 14.9984L34.5842 18.1754L39.0555 14.0119C39.1456 13.9199 39.2534 13.8469 39.3724 13.7973C39.4913 13.7477 39.6191 13.7226 39.7481 13.7233C39.877 13.7241 40.0045 13.7508 40.1229 13.8018C40.2412 13.8528 40.3481 13.9271 40.4371 14.0203C40.526 14.1134 40.5952 14.2235 40.6406 14.3439C40.686 14.4643 40.7065 14.5926 40.7011 14.7212C40.6957 14.8497 40.6643 14.9758 40.6089 15.092C40.5536 15.2082 40.4753 15.312 40.3788 15.3973L35.6821 20.3587L39.3173 18.7122C39.5491 18.6075 39.8127 18.5975 40.0519 18.6842C40.291 18.771 40.4866 18.9476 40.5969 19.1764C40.7034 19.4063 40.7143 19.669 40.6271 19.9069C40.5399 20.1449 40.3617 20.3386 40.1316 20.4457L38.0159 21.3814L43.8322 20.2716C43.9554 20.2445 44.0827 20.2418 44.2069 20.2638C44.3311 20.2857 44.4498 20.3318 44.5561 20.3995C44.6624 20.4672 44.7544 20.5551 44.8266 20.6583C44.8989 20.7614 44.9501 20.8777 44.9773 21.0006C45.0046 21.1235 45.0072 21.2505 44.9852 21.3744C44.9632 21.4983 44.917 21.6167 44.8492 21.7228C44.7813 21.8289 44.6932 21.9206 44.5898 21.9927C44.4864 22.0648 44.3698 22.1159 44.2467 22.143L38.1976 23.3326L40.7787 23.4994C40.9122 23.4878 41.0467 23.5041 41.1736 23.5471C41.3005 23.5901 41.4171 23.659 41.5159 23.7494C41.6147 23.8398 41.6936 23.9496 41.7475 24.0721C41.8015 24.1945 41.8294 24.3267 41.8294 24.4605C41.8294 24.5942 41.8015 24.7265 41.7475 24.8489C41.6936 24.9713 41.6147 25.0812 41.5159 25.1716C41.4171 25.2619 41.3005 25.3308 41.1736 25.3739C41.0467 25.4169 40.9122 25.4331 40.7787 25.4216L37.7541 25.7407L44.2976 27.3655C44.532 27.4399 44.7288 27.6013 44.8474 27.8164C44.966 28.0315 44.9973 28.2837 44.9348 28.5212C44.8722 28.7586 44.7207 28.9629 44.5115 29.0921C44.3022 29.2212 44.0513 29.2653 43.8104 29.2151L37.0634 27.6991L40.2479 29.8752C40.4658 30.0079 40.6219 30.2215 40.6819 30.4691C40.7419 30.7167 40.7009 30.9779 40.5678 31.1953C40.4348 31.4127 40.2206 31.5684 39.9724 31.6283C39.7243 31.6881 39.4625 31.6472 39.2446 31.5144L36.5763 30.2161L40.1025 33.705C40.2814 33.8855 40.3818 34.1292 40.3818 34.3832C40.3818 34.6371 40.2814 34.8808 40.1025 35.0613C40.0133 35.1506 39.9074 35.2214 39.7907 35.2698C39.6741 35.3181 39.549 35.343 39.4227 35.343C39.2964 35.343 39.1713 35.3181 39.0547 35.2698C38.938 35.2214 38.8321 35.1506 38.7429 35.0613L34.2425 31.0212L35.4494 34.2054C35.5062 34.3178 35.5403 34.4403 35.5496 34.5658C35.559 34.6914 35.5435 34.8175 35.504 34.9371C35.4645 35.0566 35.4018 35.1672 35.3195 35.2626C35.2371 35.358 35.1367 35.4362 35.0241 35.4929C34.9114 35.5496 34.7887 35.5836 34.6628 35.5929C34.537 35.6023 34.4106 35.5868 34.2907 35.5474C34.1709 35.508 34.06 35.4454 33.9644 35.3633C33.8688 35.2811 33.7904 35.181 33.7336 35.0686L32.2141 32.6895L33.6027 38.5938C33.6404 38.7181 33.6523 38.8489 33.6378 38.978C33.6232 39.1072 33.5824 39.232 33.5179 39.3449C33.4534 39.4578 33.3666 39.5565 33.2627 39.6348C33.1587 39.7132 33.0399 39.7696 32.9134 39.8006C32.7869 39.8317 32.6554 39.8367 32.5269 39.8154C32.3984 39.7942 32.2756 39.747 32.166 39.6768C32.0563 39.6067 31.9621 39.515 31.8892 39.4074C31.8162 39.2997 31.7659 39.1784 31.7415 39.0507L30.52 33.7485L30.3964 39.7471C30.4081 39.8803 30.3918 40.0145 30.3486 40.1411C30.3055 40.2677 30.2364 40.384 30.1459 40.4826C30.0553 40.5811 29.9451 40.6598 29.8224 40.7137C29.6997 40.7675 29.5671 40.7953 29.4331 40.7953C29.2991 40.7953 29.1665 40.7675 29.0438 40.7137C28.9211 40.6598 28.8109 40.5811 28.7203 40.4826C28.6298 40.384 28.5607 40.2677 28.5176 40.1411C28.4744 40.0145 28.4581 39.8803 28.4698 39.7471V32.9506L27.2992 36.4177C27.2695 36.5445 27.2143 36.6639 27.1368 36.7686C27.0593 36.8733 26.9612 36.9612 26.8485 37.0268C26.7358 37.0924 26.6109 37.1344 26.4814 37.1503C26.3519 37.1661 26.2205 37.1554 26.0953 37.1189C25.97 37.0823 25.8536 37.0207 25.753 36.9377C25.6525 36.8548 25.57 36.7522 25.5105 36.6364C25.451 36.5205 25.4158 36.3938 25.4071 36.2639C25.3984 36.134 25.4163 36.0037 25.4598 35.881L26.4777 32.3558L23.0024 37.7016C22.9355 37.8083 22.8483 37.9008 22.7456 37.9738C22.643 38.0469 22.5269 38.099 22.404 38.1273C22.2811 38.1556 22.1539 38.1595 22.0295 38.1387C21.9051 38.1179 21.7861 38.0729 21.6791 38.0062C21.5722 37.9396 21.4795 37.8525 21.4063 37.7501C21.3331 37.6477 21.2808 37.5318 21.2524 37.4093C21.2241 37.2867 21.2202 37.1597 21.241 37.0356C21.2618 36.9116 21.307 36.7928 21.3738 36.6861L24.9581 30.9487L21.8827 33.4438C21.6885 33.5974 21.4422 33.6701 21.1954 33.6466C20.9487 33.6231 20.7206 33.5053 20.559 33.3178C20.3974 33.1303 20.3147 32.8877 20.3284 32.6408C20.342 32.3938 20.4509 32.1618 20.6322 31.9932L23.7294 29.3457L17.1133 32.3196C16.9983 32.3715 16.8741 32.4003 16.7479 32.4043C16.6217 32.4083 16.4959 32.3875 16.3778 32.3431C16.2596 32.2986 16.1514 32.2314 16.0593 32.1452C15.9672 32.059 15.893 31.9556 15.841 31.8408C15.7889 31.726 15.7601 31.6022 15.756 31.4763C15.752 31.3503 15.7728 31.2249 15.8174 31.107C15.8619 30.9891 15.9293 30.8812 16.0157 30.7893C16.1021 30.6974 16.2058 30.6234 16.3208 30.5715L22.4789 27.8369L18.6256 28.5115C18.3739 28.5538 18.1157 28.4947 17.9078 28.3471C17.6999 28.1995 17.5592 27.9756 17.5168 27.7245C17.4744 27.4735 17.5337 27.2159 17.6816 27.0084C17.8296 26.801 18.054 26.6607 18.3057 26.6184L21.9409 25.893L14.4451 25.3563C14.3163 25.3505 14.19 25.319 14.0738 25.2636C13.9575 25.2081 13.8536 25.1298 13.7684 25.0335C13.6831 24.9371 13.6181 24.8246 13.5773 24.7026C13.5366 24.5806 13.5209 24.4517 13.5311 24.3236C13.5414 24.1954 13.5774 24.0706 13.637 23.9567C13.6967 23.8427 13.7787 23.7419 13.8783 23.6602C13.9778 23.5786 14.0928 23.5177 14.2164 23.4814C14.34 23.445 14.4697 23.4339 14.5977 23.4486L22.6825 23.9926L17.106 21.3814C16.9905 21.3309 16.8861 21.2582 16.7987 21.1675C16.7113 21.0767 16.6427 20.9697 16.5968 20.8525C16.5509 20.7353 16.5286 20.6102 16.5311 20.4844C16.5337 20.3586 16.561 20.2346 16.6116 20.1193C16.6622 20.004 16.7351 19.8999 16.8261 19.8127C16.917 19.7255 17.0243 19.6571 17.1418 19.6113C17.2593 19.5655 17.3846 19.5432 17.5107 19.5458C17.6368 19.5483 17.7612 19.5756 17.8767 19.6261L21.6791 21.3089L19.2653 19.6623C19.1622 19.5895 19.0745 19.4971 19.0072 19.3904C18.9399 19.2837 18.8943 19.1648 18.873 19.0405C18.8518 18.9163 18.8552 18.789 18.8833 18.6661C18.9113 18.5432 18.9633 18.427 19.0364 18.3241C19.1094 18.2212 19.202 18.1337 19.3089 18.0665C19.4159 17.9994 19.535 17.9539 19.6596 17.9327C19.7842 17.9115 19.9117 17.9149 20.0349 17.9429C20.1581 17.9708 20.2746 18.0227 20.3778 18.0956L23.9039 20.4602L19.1854 14.6067C19.033 14.408 18.9647 14.1576 18.995 13.9092C19.0254 13.6608 19.152 13.4342 19.3477 13.2778C19.5435 13.1213 19.7928 13.0476 20.0424 13.0723C20.292 13.097 20.522 13.2182 20.6831 13.4099L24.631 17.9505L22.6098 14.4761C22.5482 14.3661 22.5089 14.2451 22.4942 14.1199C22.4795 13.9948 22.4897 13.868 22.5241 13.7467C22.5586 13.6255 22.6166 13.5122 22.6949 13.4133C22.7732 13.3145 22.8703 13.232 22.9806 13.1705C23.0908 13.1091 23.2122 13.0699 23.3376 13.0553C23.4631 13.0406 23.5902 13.0507 23.7117 13.0851C23.8332 13.1194 23.9468 13.1773 24.0459 13.2555C24.145 13.3336 24.2277 13.4304 24.2892 13.5405L26.9939 18.2915L25.3944 10.7261Z" stroke="white" stroke-miterlimit="22.93"/>
<path d="M30.0395 23.6733C30.3013 23.6733 30.5571 23.7508 30.7747 23.8958C30.9923 24.0409 31.1619 24.2471 31.2621 24.4883C31.3622 24.7295 31.3884 24.9949 31.3374 25.251C31.2863 25.5071 31.1603 25.7423 30.9752 25.9269C30.7902 26.1116 30.5544 26.2373 30.2977 26.2882C30.041 26.3392 29.775 26.313 29.5332 26.2131C29.2914 26.1132 29.0847 25.944 28.9393 25.7269C28.7939 25.5098 28.7163 25.2546 28.7163 24.9935C28.7182 24.6439 28.8583 24.3093 29.106 24.0621C29.3537 23.8149 29.6892 23.6752 30.0395 23.6733V23.6733Z" stroke="white" stroke-width="1.16689" stroke-linecap="round" stroke-linejoin="round"/>
</svg>
