<svg width="20" height="20" viewBox="0 0 20 20" fill="none" xmlns="http://www.w3.org/2000/svg">
<path d="M19.1668 14.51V17.26C19.1678 17.5153 19.1156 17.768 19.0133 18.0019C18.911 18.2358 18.761 18.4458 18.5729 18.6184C18.3848 18.791 18.1627 18.9223 17.9208 19.0041C17.679 19.0859 17.4227 19.1163 17.1685 19.0933C14.3477 18.7868 11.6382 17.823 9.25764 16.2792C7.04282 14.8718 5.16503 12.994 3.75764 10.7792C2.20846 8.38776 1.24436 5.66507 0.943475 2.83166C0.920568 2.57817 0.950694 2.32269 1.03193 2.08148C1.11317 1.84027 1.24375 1.61862 1.41534 1.43064C1.58694 1.24266 1.7958 1.09247 2.02862 0.989635C2.26144 0.886797 2.51312 0.833563 2.76764 0.833323H5.51764C5.96251 0.828945 6.39378 0.986479 6.73109 1.27656C7.0684 1.56664 7.28871 1.96948 7.35098 2.40999C7.46705 3.29005 7.6823 4.15416 7.99264 4.98582C8.11597 5.31392 8.14267 5.6705 8.06956 6.0133C7.99645 6.3561 7.8266 6.67076 7.58014 6.91999L6.41598 8.08416C7.7209 10.3791 9.62106 12.2792 11.916 13.5842L13.0801 12.42C13.3294 12.1735 13.644 12.0037 13.9868 11.9306C14.3296 11.8575 14.6862 11.8842 15.0143 12.0075C15.846 12.3178 16.7101 12.5331 17.5901 12.6492C18.0354 12.712 18.4421 12.9363 18.7328 13.2794C19.0235 13.6225 19.178 14.0604 19.1668 14.51Z" fill="#CC6497"/>
</svg>
