<svg width="30" height="30" viewBox="0 0 30 30" fill="none" xmlns="http://www.w3.org/2000/svg">
<path d="M15 30C23.2843 30 30 23.2843 30 15C30 6.71573 23.2843 0 15 0C6.71573 0 0 6.71573 0 15C0 23.2843 6.71573 30 15 30Z" fill="#4D76A1"/>
<path fill-rule="evenodd" clip-rule="evenodd" d="M14.4603 20.8757H15.489C15.489 20.8757 15.7997 20.8416 15.9584 20.6705C16.1044 20.5135 16.0997 20.2187 16.0997 20.2187C16.0997 20.2187 16.0796 18.8383 16.7203 18.6351C17.3518 18.4348 18.1628 19.9692 19.0223 20.5591C19.6723 21.0056 20.1662 20.9077 20.1662 20.9077L22.4646 20.8757C22.4646 20.8757 23.6669 20.8016 23.0968 19.8563C23.0501 19.779 22.7648 19.157 21.3879 17.879C19.9468 16.5414 20.1398 16.7578 21.8758 14.444C22.933 13.035 23.3557 12.1747 23.2236 11.8063C23.0977 11.4553 22.3202 11.5481 22.3202 11.5481L19.7324 11.5642C19.7324 11.5642 19.5405 11.538 19.3983 11.6231C19.2592 11.7065 19.1698 11.9009 19.1698 11.9009C19.1698 11.9009 18.7602 12.9913 18.2139 13.9186C17.0616 15.8753 16.6009 15.9786 16.4126 15.8571C15.9745 15.5739 16.0838 14.7195 16.0838 14.1125C16.0838 12.2163 16.3715 11.4257 15.5238 11.221C15.2425 11.153 15.0355 11.1081 14.3161 11.1009C13.3928 11.0913 12.6113 11.1037 12.1688 11.3205C11.8744 11.4647 11.6473 11.7859 11.7856 11.8044C11.9566 11.8273 12.344 11.9088 12.5493 12.1885C12.8145 12.5492 12.8052 13.3595 12.8052 13.3595C12.8052 13.3595 12.9575 15.5917 12.4494 15.869C12.1005 16.0592 11.622 15.6709 10.5947 13.8957C10.0683 12.9864 9.67091 11.9812 9.67091 11.9812C9.67091 11.9812 9.59428 11.7934 9.4576 11.6929C9.29171 11.5712 9.05994 11.5324 9.05994 11.5324L6.60088 11.5485C6.60088 11.5485 6.23173 11.5588 6.09622 11.7193C5.97566 11.8621 6.08664 12.1574 6.08664 12.1574C6.08664 12.1574 8.01183 16.6615 10.1917 18.9313C12.1905 21.0124 14.4603 20.8757 14.4603 20.8757Z" fill="white"/>
</svg>
