<svg width="30" height="30" viewBox="0 0 30 30" fill="none" xmlns="http://www.w3.org/2000/svg">
<circle cx="15" cy="15" r="15" fill="#48C95F"/>
<path d="M20.9451 9.0467C19.4634 7.57013 17.4878 6.74982 15.4024 6.74982C11.0671 6.74982 7.55488 10.2498 7.55488 14.5701C7.55488 15.9373 7.93902 17.3045 8.59756 18.453L7.5 22.4998L11.6707 21.4061C12.8232 22.0077 14.0854 22.3358 15.4024 22.3358C19.7378 22.3358 23.25 18.8358 23.25 14.5155C23.1951 12.492 22.4268 10.5233 20.9451 9.0467ZM19.189 17.3592C19.0244 17.7967 18.2561 18.2342 17.872 18.2889C17.5427 18.3436 17.1037 18.3436 16.6646 18.2342C16.3902 18.1248 16.0061 18.0155 15.5671 17.7967C13.5915 16.9764 12.3293 15.0076 12.2195 14.8436C12.1098 14.7342 11.3963 13.8045 11.3963 12.8201C11.3963 11.8358 11.8902 11.3983 12.0549 11.1795C12.2195 10.9608 12.439 10.9608 12.6037 10.9608C12.7134 10.9608 12.878 10.9608 12.9878 10.9608C13.0976 10.9608 13.2622 10.9061 13.4268 11.2889C13.5915 11.6717 13.9756 12.6561 14.0305 12.7108C14.0854 12.8201 14.0854 12.9295 14.0305 13.0389C13.9756 13.1483 13.9207 13.2576 13.811 13.367C13.7012 13.4764 13.5915 13.6405 13.5366 13.6951C13.4268 13.8045 13.3171 13.9139 13.4268 14.078C13.5366 14.2967 13.9207 14.8983 14.5244 15.4451C15.2927 16.1014 15.8963 16.3201 16.1159 16.4295C16.3354 16.5389 16.4451 16.4842 16.5549 16.3748C16.6646 16.2655 17.0488 15.828 17.1585 15.6092C17.2683 15.3905 17.4329 15.4451 17.5976 15.4998C17.7622 15.5545 18.75 16.0467 18.9146 16.1561C19.1341 16.2655 19.2439 16.3201 19.2988 16.3748C19.3537 16.5389 19.3537 16.9217 19.189 17.3592Z" fill="white"/>
</svg>
